<?xml version="1.0" encoding="utf-8"?>
<!-- Generator: Adobe Illustrator 23.0.3, SVG Export Plug-In . SVG Version: 6.00 Build 0)  -->
<svg version="1.1" id="Layer_1" xmlns:sketch="http://www.bohemiancoding.com/sketch/ns"
	 xmlns="http://www.w3.org/2000/svg" xmlns:xlink="http://www.w3.org/1999/xlink" x="0px" y="0px" viewBox="0 0 30 37.5"
	 style="enable-background:new 0 0 30 37.5;" xml:space="preserve">
<style type="text/css">
	.st0{fill-rule:evenodd;clip-rule:evenodd;fill:#ACB7FD;stroke:#ACB7FD;stroke-miterlimit:10;}
</style>
<title>emotion_051-sad-love-face-avatar-emoticon-expression-mood</title>
<desc>Created with Sketch.</desc>
<g sketch:type="MSPage">
	<g transform="translate(-495.000000, -135.000000)" sketch:type="MSArtboardGroup">
		<path sketch:type="MSShapeGroup" class="st0" d="M512.2,148.4l2.5,2.5c0.2,0.2,0.5,0.2,0.7,0l2.5-2.5c0.8-0.8,0.8-2,0-2.8
			s-2-0.8-2.8,0c-0.8-0.8-2-0.8-2.8,0C511.4,146.4,511.4,147.6,512.2,148.4z M512.9,147.7l2.1,2.1l2.1-2.1c0.4-0.4,0.4-1,0-1.4
			c-0.4-0.4-1-0.4-1.4,0c-0.1,0.1-0.2,0.2-0.2,0.4c-0.2,0.5-0.8,0.4-0.9,0c0-0.1-0.1-0.3-0.2-0.4c-0.4-0.4-1-0.4-1.4,0
			C512.5,146.7,512.5,147.3,512.9,147.7z M502.2,148.4l2.5,2.5c0.2,0.2,0.5,0.2,0.7,0l2.5-2.5c0.8-0.8,0.8-2,0-2.8s-2-0.8-2.8,0
			c-0.8-0.8-2-0.8-2.8,0S501.4,147.6,502.2,148.4z M502.9,147.7l2.1,2.1l2.1-2.1c0.4-0.4,0.4-1,0-1.4c-0.4-0.4-1-0.4-1.4,0
			c-0.1,0.1-0.2,0.2-0.2,0.4c-0.2,0.5-0.8,0.4-0.9,0c0-0.1-0.1-0.3-0.2-0.4c-0.4-0.4-1-0.4-1.4,0
			C502.5,146.7,502.5,147.3,502.9,147.7z M510,164c7.7,0,14-6.3,14-14s-6.3-14-14-14s-14,6.3-14,14S502.3,164,510,164z M510,163
			c7.2,0,13-5.8,13-13s-5.8-13-13-13s-13,5.8-13,13S502.8,163,510,163z M506.1,158.6c0.2-0.2,0.5-0.4,0.8-0.6c0.9-0.6,1.9-0.9,3-0.9
			s2.2,0.3,3,0.9c0.3,0.2,0.6,0.4,0.8,0.6c0.1,0.1,0.2,0.2,0.3,0.3c0.2,0.2,0.5,0.2,0.7,0.1c0.2-0.2,0.2-0.5,0.1-0.7
			c-0.2-0.3-0.7-0.7-1.3-1.1c-1-0.7-2.2-1.1-3.6-1.1s-2.6,0.4-3.6,1.1c-0.6,0.4-1.1,0.8-1.3,1.1c-0.2,0.2-0.1,0.5,0.1,0.7
			c0.2,0.2,0.5,0.1,0.7-0.1C505.9,158.8,506,158.7,506.1,158.6z"/>
	</g>
</g>
</svg>
