<?xml version="1.0" encoding="utf-8"?>
<!-- Generator: Adobe Illustrator 23.0.3, SVG Export Plug-In . SVG Version: 6.00 Build 0)  -->
<svg version="1.1" id="Layer_1" xmlns="http://www.w3.org/2000/svg" xmlns:xlink="http://www.w3.org/1999/xlink" x="0px" y="0px"
	 viewBox="0 0 30.6 37" style="enable-background:new 0 0 30.6 37;" xml:space="preserve">
<style type="text/css">
	.st0{fill:#ACB7FD;}
</style>
<g>
	<g id="XMLID_1_">
		<g>
			<path class="st0" d="M24.5,5.8c0.9-1,0.8-1.1-0.2-0.3L8.6,17.8c-1,0.8-2.9,1.1-4.1,0.6L0.9,17c-1.2-0.5-1.3-1.4-0.1-2L29,0.2
				c1.2-0.6,1.8-0.1,1.5,1.2l-6.1,22.3c-0.3,1.3-1.6,1.8-2.8,1.4l-4-1.6c-1.2-0.5-3.2-1.3-4.4-1.8l-0.4-0.2
				c-1.2-0.5-1.5-1.6-0.6-2.6L24.5,5.8z"/>
			<path class="st0" d="M12.3,23.1c1.2,0.5,1.6,1.8,0.9,2.9c0,0-2.5,3.9-2.5,3.7c0.1-0.2-2.5-6.4-2.5-6.4C7.7,22,8.3,21.5,9.5,22
				L12.3,23.1z"/>
		</g>
		<g>
		</g>
	</g>
</g>
</svg>
