<?xml version="1.0" encoding="utf-8"?>
<!-- Generator: Adobe Illustrator 23.0.3, SVG Export Plug-In . SVG Version: 6.00 Build 0)  -->
<svg version="1.1" id="Layer_1" xmlns="http://www.w3.org/2000/svg" xmlns:xlink="http://www.w3.org/1999/xlink" x="0px" y="0px"
	 viewBox="0 0 8 10" style="enable-background:new 0 0 8 10;" xml:space="preserve">
<style type="text/css">
	.st0{fill:#ACB7FD;}
</style>
<g id="XMLID_1_">
	<g>
		<path class="st0" d="M3.2,7h1.2C5.3,7,6,6.3,6,5.5S5.3,4,4.5,4H3.2C3.1,4,3,4.1,3,4.2v2.5C3,6.9,3.1,7,3.2,7z M3.2,3H4
			c0.6,0,1-0.5,1-1S4.6,1,4,1H3.2C3.1,1,3,1.1,3,1.2v1.5C3,2.9,3.1,3,3.2,3z M2,0h3c1.1,0,2,0.9,2,2c0,0.5-0.2,0.9-0.4,1.2
			C7.4,3.6,8,4.5,8,5.5C8,6.9,6.9,8,5.5,8H2H0.5C0.2,8,0,7.8,0,7.5S0.2,7,0.5,7C0.8,7,1,6.8,1,6.5v-5C1,1.2,0.8,1,0.5,1
			C0.2,1,0,0.8,0,0.5S0.2,0,0.5,0H2z"/>
	</g>
	<g>
	</g>
</g>
</svg>
